<?xml version="1.0" encoding="UTF-8" standalone="no"?><!DOCTYPE svg PUBLIC "-//W3C//DTD SVG 1.1//EN" "http://www.w3.org/Graphics/SVG/1.1/DTD/svg11.dtd"><svg width="100%" height="100%" viewBox="0 0 1280 1280" version="1.1" xmlns="http://www.w3.org/2000/svg" xmlns:xlink="http://www.w3.org/1999/xlink" xml:space="preserve" xmlns:serif="http://www.serif.com/" style="fill-rule:evenodd;clip-rule:evenodd;stroke-linejoin:round;stroke-miterlimit:1.41421;"><path d="M377.046,327.277c0,-1.929 0.766,-3.779 2.13,-5.142c1.364,-1.364 3.214,-2.13 5.143,-2.13c16.436,0 56.29,0 72.726,0c4.017,0 7.273,3.256 7.273,7.272c0,18.883 0,68.014 0,68.014l58.082,58.083c-31.641,31.643 -51.223,75.346 -51.223,123.587c0,48.241 19.582,91.945 51.223,123.589l-58.082,58.082c0,0 0,158.019 0,194.091c0,4.018 -3.256,7.272 -7.273,7.272c-16.436,0 -56.29,0 -72.726,0c-1.929,0 -3.779,-0.763 -5.143,-2.127c-1.364,-1.363 -2.13,-3.218 -2.13,-5.145c0,-65.939 0,-559.509 0,-625.444l0,-0.002Z" style="fill:#0a0a0a;"/><path d="M522.4,700.55c31.642,31.644 75.346,51.228 123.588,51.228c48.241,0 91.945,-19.584 123.588,-51.228l58.081,58.082c-46.513,46.516 -110.756,75.304 -181.669,75.304c-70.914,0 -135.156,-28.788 -181.67,-75.304l58.082,-58.082Z" style="fill:#f4b63a;"/><path d="M827.657,395.291c46.516,46.515 75.297,110.758 75.297,181.67c0,70.913 -28.781,135.156 -75.297,181.671l-58.081,-58.082c31.64,-31.644 51.222,-75.348 51.222,-123.589c0,-48.241 -19.582,-91.944 -51.222,-123.587l58.081,-58.083Z" style="fill:#f43072;"/><path d="M464.318,395.291c46.514,-46.517 110.756,-75.305 181.67,-75.305c70.913,0 135.156,28.788 181.669,75.305l-58.081,58.083c-31.643,-31.646 -75.347,-51.23 -123.588,-51.23c-48.242,0 -91.946,19.584 -123.588,51.23l-58.082,-58.083Z" style="fill:#3269ff;"/></svg>