<?xml version="1.0" encoding="UTF-8" standalone="no"?><!DOCTYPE svg PUBLIC "-//W3C//DTD SVG 1.1//EN" "http://www.w3.org/Graphics/SVG/1.1/DTD/svg11.dtd"><svg width="100%" height="100%" viewBox="0 0 1052 1280" version="1.1" xmlns="http://www.w3.org/2000/svg" xmlns:xlink="http://www.w3.org/1999/xlink" xml:space="preserve" xmlns:serif="http://www.serif.com/" style="fill-rule:evenodd;clip-rule:evenodd;stroke-linejoin:round;stroke-miterlimit:1.41421;"><path d="M0.921,15.559c0,-3.852 1.53,-7.546 4.253,-10.268c2.724,-2.723 6.418,-4.253 10.27,-4.253c32.82,0 112.403,0 145.223,0c8.021,0 14.523,6.502 14.523,14.521c0,37.706 0,135.814 0,135.814l115.981,115.982c-63.182,63.187 -102.285,150.455 -102.285,246.785c0,96.33 39.103,183.6 102.285,246.788l-115.981,115.981c0,0 0,315.54 0,387.57c0,8.023 -6.502,14.521 -14.523,14.521c-32.82,0 -112.403,0 -145.223,0c-3.852,0 -7.546,-1.524 -10.27,-4.247c-2.723,-2.722 -4.253,-6.426 -4.253,-10.274c0,-131.67 0,-1117.25 0,-1248.92l0,-0.004Z" style="fill:#0a0a0a;"/><path d="M291.171,760.928c63.184,63.188 150.454,102.295 246.786,102.295c96.33,0 183.6,-39.107 246.786,-102.295l115.979,115.981c-92.879,92.885 -221.162,150.37 -362.765,150.37c-141.604,0 -269.886,-57.485 -362.767,-150.37l115.981,-115.981Z" style="fill:#f4b63a;"/><path d="M900.722,151.373c92.886,92.883 150.357,221.166 150.357,362.767c0,141.602 -57.471,269.886 -150.357,362.769l-115.979,-115.981c63.181,-63.188 102.283,-150.458 102.283,-246.788c0,-96.33 -39.102,-183.598 -102.283,-246.785l115.979,-115.982Z" style="fill:#f43072;"/><path d="M175.19,151.373c92.881,-92.888 221.163,-150.373 362.767,-150.373c141.603,0 269.886,57.485 362.765,150.373l-115.979,115.982c-63.186,-63.192 -150.456,-102.298 -246.786,-102.298c-96.332,0 -183.602,39.106 -246.786,102.298l-115.981,-115.982Z" style="fill:#3269ff;"/></svg>