<svg width="320" height="391" viewBox="0 0 320 391" fill="none" xmlns="http://www.w3.org/2000/svg">
<path fill-rule="evenodd" clip-rule="evenodd" d="M59.9824 260.036V390.432H0V0H59.9824V44.6445L98.3874 83.0429C80.6472 100.787 69.6633 125.292 69.6633 152.34C69.6633 179.389 80.6472 203.876 98.3874 221.62L59.9824 260.036Z" fill="#0A0A0A"/>
<path fill-rule="evenodd" clip-rule="evenodd" d="M59.9824 44.6419C87.5561 17.0682 125.638 0.00802612 167.674 0.00802612C209.711 0.00802612 247.792 17.0682 275.36 44.6419L236.962 83.0459C219.217 65.3066 194.716 54.3292 167.674 54.3292C140.627 54.3292 116.126 65.3066 98.3863 83.0459L59.9824 44.6419Z" fill="#3269FF"/>
<path fill-rule="evenodd" clip-rule="evenodd" d="M275.36 260.026C247.792 287.599 209.711 304.659 167.674 304.659C125.638 304.659 87.5561 287.599 59.9824 260.026L98.3863 221.622C116.126 239.361 140.627 250.338 167.674 250.338C194.716 250.338 219.217 239.361 236.962 221.622L275.36 260.026Z" fill="#F4B63A"/>
<path fill-rule="evenodd" clip-rule="evenodd" d="M275.366 44.6475C302.94 72.2155 320 110.297 320 152.333C320 194.37 302.94 232.452 275.366 260.025L236.962 221.621C254.701 203.882 265.679 179.381 265.679 152.333C265.679 125.292 254.701 100.791 236.962 83.0457L275.366 44.6475Z" fill="#F43072"/>
</svg>
