<?xml version="1.0" encoding="UTF-8" standalone="no"?><!DOCTYPE svg PUBLIC "-//W3C//DTD SVG 1.1//EN" "http://www.w3.org/Graphics/SVG/1.1/DTD/svg11.dtd"><svg width="100%" height="100%" viewBox="0 0 1280 500" version="1.1" xmlns="http://www.w3.org/2000/svg" xmlns:xlink="http://www.w3.org/1999/xlink" xml:space="preserve" xmlns:serif="http://www.serif.com/" style="fill-rule:evenodd;clip-rule:evenodd;stroke-linejoin:round;stroke-miterlimit:1.41421;"><path d="M1,492.821l0,-370.62c0,-3.53 2.861,-6.391 6.39,-6.391c9.82,0 28.517,0 38.34,0c3.528,0 6.389,2.861 6.389,6.391l0,32.7c27.141,-24.303 62.978,-39.091 102.24,-39.091c84.642,0 153.36,68.719 153.36,153.361c0,84.642 -68.718,153.36 -153.36,153.36c-39.262,0 -75.099,-14.787 -102.24,-39.091l0,109.381c0,3.53 -2.861,6.391 -6.389,6.391c-9.823,0 -28.52,0 -38.34,0c-3.529,0 -6.39,-2.861 -6.39,-6.391Zm153.359,-325.89c56.429,0 102.241,45.811 102.241,102.24c0,56.428 -45.812,102.24 -102.241,102.24c-56.429,0 -102.24,-45.812 -102.24,-102.24c0,-56.429 45.811,-102.24 102.24,-102.24Z" style="fill:#f9fbff;"/><path d="M384.4,122.201c0,-3.53 -2.861,-6.391 -6.39,-6.391c-9.822,0 -28.519,0 -38.34,0c-3.529,0 -6.391,2.861 -6.391,6.391c0,39.868 0,254.071 0,293.941c0,3.528 2.862,6.389 6.391,6.389c9.821,0 28.518,0 38.34,0c3.529,0 6.39,-2.861 6.39,-6.389c0,-39.87 0,-254.073 0,-293.941Z" style="fill:#f9fbff;"/><circle cx="358.84" cy="32.739" r="31.951" style="fill:#f9fbff;"/><path d="M656.043,422.531c-1.995,0 -3.874,-0.931 -5.084,-2.519c-12.995,-17.069 -87.639,-115.108 -87.639,-115.108c0,0 -75.714,98.162 -88.809,115.14c-1.211,1.568 -3.08,2.487 -5.06,2.487c-9.748,0 -39.623,0 -52.953,0c-1.221,0 -2.333,-0.694 -2.871,-1.792c-0.535,-1.098 -0.399,-2.403 0.352,-3.366c21.12,-27.112 118.318,-151.871 118.318,-151.871c0,0 -92.02,-118.558 -112.484,-144.923c-0.748,-0.964 -0.881,-2.268 -0.345,-3.363c0.537,-1.095 1.651,-1.79 2.87,-1.79c13.323,0 43.219,0 52.968,0c1.978,0 3.848,0.916 5.058,2.484c12.647,16.379 83.541,108.189 83.541,108.189c0,0 70.362,-91.748 82.956,-108.171c1.21,-1.577 3.085,-2.502 5.071,-2.502c9.607,0 38.655,0 51.765,0c1.221,0 2.335,0.696 2.871,1.793c0.535,1.096 0.399,2.404 -0.351,3.367c-20.579,26.377 -113.045,144.916 -113.045,144.916c0,0 98.099,124.724 119.44,151.859c0.758,0.962 0.899,2.271 0.364,3.372c-0.534,1.099 -1.651,1.798 -2.874,1.798c-13.552,0 -44.145,0 -54.059,0Z" style="fill:#f9fbff;"/><path d="M997.84,270.588c0,2.893 -0.186,6.425 -0.561,10.598c-0.284,3.304 -3.049,5.84 -6.363,5.84c-37.392,0.003 -244.029,0.003 -244.029,0.003c3.486,26.458 15.393,47.719 35.726,63.783c20.332,16.064 45.602,24.096 75.809,24.096c34.267,0 62.32,-10.494 84.157,-31.479c1.253,-1.219 2.952,-1.869 4.699,-1.798c1.745,0.069 3.387,0.854 4.538,2.169c6.106,6.947 16.835,19.197 22.51,25.675c2.17,2.479 2.101,6.202 -0.16,8.597c-13.237,13.771 -29.255,24.437 -48.068,31.986c-20.72,8.315 -43.859,12.473 -69.419,12.473c-32.531,0 -61.383,-6.519 -86.555,-19.56c-25.173,-13.041 -44.634,-31.277 -58.382,-54.711c-13.749,-23.434 -20.621,-49.892 -20.621,-79.371c0,-29.106 6.68,-55.374 20.04,-78.807c13.361,-23.433 31.757,-41.671 55.187,-54.712c23.431,-13.04 49.86,-19.56 79.293,-19.56c29.434,0 55.672,6.52 78.714,19.56c23.043,13.041 41.051,31.279 54.024,54.712c12.974,23.433 19.461,50.268 19.461,80.506Zm-152.199,-108.854c-26.721,0 -49.086,7.937 -67.094,23.811c-18.007,15.875 -28.563,36.665 -31.66,62.365l197.51,0c-3.099,-25.323 -13.651,-46.018 -31.66,-62.081c-18.007,-16.064 -40.372,-24.095 -67.096,-24.095Z" style="fill:#f9fbff;"/><path d="M1146.85,115.81c42.694,0 75.395,10.205 98.095,30.617c22.7,20.409 34.058,50.835 34.058,91.278c0,0 0,145.88 0,178.437c0,3.528 -2.859,6.389 -6.39,6.389c-10.191,0 -30.001,0 -40.193,0c-3.53,0 -6.389,-2.861 -6.389,-6.389c0,-11.998 0,-36.699 0,-36.699c-9.314,13.985 -22.613,24.663 -39.883,32.032c-17.271,7.371 -37.745,11.056 -61.42,11.056c-34.541,0 -62.193,-8.127 -82.958,-24.38c-20.764,-16.25 -31.146,-37.606 -31.146,-64.064c0,-26.458 9.896,-47.719 29.691,-63.781c19.792,-16.066 51.23,-24.096 94.312,-24.096c0,0 69.441,0 85.285,0c1.773,0 3.194,-1.431 3.194,-3.194c0,-3.177 0,-7.578 0,-7.578c0,-23.436 -6.98,-41.388 -20.949,-53.862c-13.971,-12.473 -34.542,-18.707 -61.71,-18.707c-18.242,0 -36.095,2.927 -53.558,8.786c-14.793,4.964 -27.638,11.349 -38.531,19.157c-1.464,1.079 -3.322,1.479 -5.1,1.102c-1.779,-0.377 -3.313,-1.495 -4.214,-3.075c-4.678,-8.166 -12.689,-22.207 -16.906,-29.598c-1.606,-2.816 -0.85,-6.391 1.761,-8.312c14.957,-10.799 32.458,-19.201 52.51,-25.196c22.122,-6.616 45.603,-9.923 70.441,-9.923Zm-12.807,264.767c21.345,0 39.783,-4.631 55.307,-13.891c15.148,-9.036 26.234,-21.76 33.245,-38.173c0.336,-0.789 0.511,-1.638 0.511,-2.498c0,-5.081 0,-24.175 0,-34.295c0,-3.531 -2.859,-6.391 -6.389,-6.391c-19.944,0 -79.763,0 -79.763,0c-47.351,0 -71.025,15.497 -71.025,46.49c0,15.118 6.016,27.024 18.049,35.719c12.031,8.693 28.72,13.039 50.065,13.039Z" style="fill:#f9fbff;"/><path d="M416.35,473.65c0,0 -219.043,0 -274.773,0c-7.057,0 -12.778,5.722 -12.778,12.778c0,0.001 0,0.004 0,0.006c0,7.056 5.721,12.778 12.778,12.778c55.73,0 274.773,0 274.773,0l0,-25.562Z" style="fill:#2e2e2f;"/><rect x="416.35" y="473.65" width="287.551" height="25.56" style="fill:#727374;"/><rect x="703.9" y="473.65" width="287.551" height="25.56" style="fill:#b6b7ba;"/><path d="M1279,486.428c0,-7.056 -5.719,-12.778 -12.779,-12.778c-55.728,0 -274.77,0 -274.77,0l0,25.562c0,0 219.042,0 274.77,0c7.06,0 12.779,-5.722 12.779,-12.778c0,-0.002 0,-0.005 0,-0.006Z" style="fill:#f9fbff;"/></svg>