<?xml version="1.0" encoding="UTF-8" standalone="no"?><!DOCTYPE svg PUBLIC "-//W3C//DTD SVG 1.1//EN" "http://www.w3.org/Graphics/SVG/1.1/DTD/svg11.dtd"><svg width="100%" height="100%" viewBox="0 0 1280 800" version="1.1" xmlns="http://www.w3.org/2000/svg" xmlns:xlink="http://www.w3.org/1999/xlink" xml:space="preserve" xmlns:serif="http://www.serif.com/" style="fill-rule:evenodd;clip-rule:evenodd;stroke-linejoin:round;stroke-miterlimit:1.41421;"><path d="M207.568,525.405l0,-250.81c0,-2.389 1.936,-4.325 4.324,-4.325c6.646,0 19.299,0 25.946,0c2.388,0 4.324,1.936 4.324,4.325l0,22.129c18.367,-16.447 42.619,-26.454 69.189,-26.454c57.28,0 103.784,46.504 103.784,103.784c0,57.28 -46.504,103.784 -103.784,103.784c-26.57,0 -50.822,-10.007 -69.189,-26.454l0,74.021c0,2.389 -1.936,4.325 -4.324,4.325c-6.647,0 -19.3,0 -25.946,0c-2.388,0 -4.324,-1.936 -4.324,-4.325Zm103.783,-220.54c38.187,0 69.19,31.002 69.19,69.189c0,38.187 -31.003,69.189 -69.19,69.189c-38.187,0 -69.189,-31.002 -69.189,-69.189c0,-38.187 31.002,-69.189 69.189,-69.189Z" style="fill:#0a0a0a;"/><path d="M467.027,274.595c0,-2.389 -1.936,-4.325 -4.324,-4.325c-6.647,0 -19.3,0 -25.946,0c-2.388,0 -4.325,1.936 -4.325,4.325c0,26.98 0,171.938 0,198.919c0,2.388 1.937,4.324 4.325,4.324c6.646,0 19.299,0 25.946,0c2.388,0 4.324,-1.936 4.324,-4.324c0,-26.981 0,-171.939 0,-198.919Z" style="fill:#0a0a0a;"/><circle cx="449.73" cy="214.053" r="21.622" style="fill:#0a0a0a;"/><path d="M650.857,477.838c-1.35,0 -2.622,-0.63 -3.441,-1.705c-8.794,-11.551 -59.308,-77.897 -59.308,-77.897c0,0 -51.238,66.429 -60.1,77.919c-0.819,1.061 -2.084,1.683 -3.424,1.683c-6.597,0 -26.814,0 -35.835,0c-0.826,0 -1.579,-0.47 -1.943,-1.213c-0.362,-0.743 -0.27,-1.626 0.238,-2.278c14.293,-18.347 80.07,-102.776 80.07,-102.776c0,0 -62.273,-80.232 -76.122,-98.074c-0.506,-0.652 -0.596,-1.535 -0.233,-2.276c0.363,-0.741 1.117,-1.211 1.942,-1.211c9.016,0 29.248,0 35.845,0c1.339,0 2.604,0.62 3.423,1.681c8.559,11.084 56.535,73.215 56.535,73.215c0,0 47.616,-62.089 56.139,-73.203c0.819,-1.067 2.088,-1.693 3.432,-1.693c6.501,0 26.159,0 35.031,0c0.826,0 1.58,0.471 1.943,1.213c0.362,0.742 0.27,1.627 -0.238,2.279c-13.926,17.85 -76.501,98.069 -76.501,98.069c0,0 66.387,84.405 80.829,102.768c0.513,0.651 0.608,1.537 0.246,2.282c-0.361,0.744 -1.117,1.217 -1.945,1.217c-9.171,0 -29.874,0 -36.583,0Z" style="fill:#0a0a0a;"/><path d="M882.162,375.013c0,1.958 -0.126,4.348 -0.38,7.172c-0.192,2.236 -2.063,3.952 -4.306,3.952c-25.304,0.002 -165.142,0.002 -165.142,0.002c2.359,17.905 10.417,32.293 24.177,43.164c13.759,10.871 30.86,16.307 51.302,16.307c23.19,0 42.174,-7.102 56.952,-21.303c0.848,-0.825 1.998,-1.265 3.18,-1.217c1.181,0.047 2.292,0.578 3.071,1.468c4.132,4.701 11.393,12.991 15.233,17.375c1.469,1.678 1.422,4.197 -0.108,5.818c-8.958,9.319 -19.798,16.537 -32.529,21.646c-14.022,5.627 -29.681,8.441 -46.978,8.441c-22.015,0 -41.54,-4.412 -58.575,-13.237c-17.035,-8.825 -30.205,-21.166 -39.509,-37.025c-9.304,-15.858 -13.955,-33.763 -13.955,-53.713c0,-19.697 4.521,-37.473 13.562,-53.331c9.042,-15.858 21.491,-28.2 37.347,-37.025c15.856,-8.825 33.742,-13.237 53.66,-13.237c19.919,0 37.675,4.412 53.268,13.237c15.594,8.825 27.781,21.167 36.56,37.025c8.78,15.858 13.17,34.018 13.17,54.481Zm-102.998,-73.665c-18.083,0 -33.218,5.371 -45.405,16.114c-12.186,10.743 -19.329,24.812 -21.425,42.204l133.661,0c-2.097,-17.137 -9.238,-31.142 -21.425,-42.012c-12.186,-10.871 -27.321,-16.306 -45.406,-16.306Z" style="fill:#0a0a0a;"/><path d="M983,270.27c28.892,0 51.022,6.906 66.384,20.719c15.362,13.812 23.048,34.402 23.048,61.771c0,0 0,98.722 0,120.754c0,2.388 -1.935,4.324 -4.324,4.324c-6.897,0 -20.303,0 -27.2,0c-2.389,0 -4.324,-1.936 -4.324,-4.324c0,-8.119 0,-24.835 0,-24.835c-6.303,9.464 -15.303,16.69 -26.99,21.677c-11.688,4.988 -25.543,7.482 -41.565,7.482c-23.375,0 -42.088,-5.5 -56.14,-16.499c-14.052,-10.997 -21.078,-25.449 -21.078,-43.354c0,-17.905 6.697,-32.293 20.093,-43.163c13.394,-10.872 34.669,-16.306 63.824,-16.306c0,0 46.993,0 57.715,0c1.2,0 2.162,-0.969 2.162,-2.162c0,-2.15 0,-5.128 0,-5.128c0,-15.86 -4.724,-28.009 -14.177,-36.45c-9.455,-8.441 -23.376,-12.66 -41.761,-12.66c-12.345,0 -24.427,1.981 -36.245,5.946c-10.011,3.359 -18.703,7.68 -26.075,12.964c-0.991,0.73 -2.248,1.001 -3.451,0.746c-1.204,-0.255 -2.242,-1.012 -2.852,-2.081c-3.166,-5.526 -8.587,-15.028 -11.441,-20.03c-1.087,-1.906 -0.575,-4.325 1.192,-5.625c10.122,-7.308 21.965,-12.994 35.535,-17.051c14.971,-4.477 30.861,-6.715 47.67,-6.715Zm-8.667,179.176c14.445,0 26.922,-3.134 37.428,-9.4c10.251,-6.115 17.753,-14.726 22.498,-25.833c0.227,-0.534 0.346,-1.109 0.346,-1.691c0,-3.438 0,-16.36 0,-23.208c0,-2.39 -1.935,-4.325 -4.324,-4.325c-13.497,0 -53.978,0 -53.978,0c-32.044,0 -48.065,10.487 -48.065,31.461c0,10.231 4.071,18.288 12.214,24.172c8.142,5.883 19.436,8.824 33.881,8.824Z" style="fill:#0a0a0a;"/><path d="M488.649,512.432c0,0 -148.234,0 -185.948,0c-4.776,0 -8.647,3.872 -8.647,8.647c0,0.001 0,0.003 0,0.004c0,4.775 3.871,8.647 8.647,8.647c37.714,0 185.948,0 185.948,0l0,-17.298Z" style="fill:#3269ff;"/><rect x="488.649" y="512.432" width="194.595" height="17.297" style="fill:#f43072;"/><rect x="683.243" y="512.432" width="194.595" height="17.297" style="fill:#f4b63a;"/><path d="M1072.43,521.079c0,-4.775 -3.87,-8.647 -8.648,-8.647c-37.713,0 -185.946,0 -185.946,0l0,17.298c0,0 148.233,0 185.946,0c4.778,0 8.648,-3.872 8.648,-8.647c0,-0.001 0,-0.003 0,-0.004Z" style="fill:#0a0a0a;"/></svg>