<svg width="780" height="301" viewBox="0 0 780 301" fill="none" xmlns="http://www.w3.org/2000/svg">
<path d="M431.079 276.585H256.635V300.763H431.079V276.585Z" fill="#F43072"/>
<path d="M256.635 276.585H82.1902V300.763H256.635V276.585Z" fill="#3269FF"/>
<path d="M605.525 276.585H431.08V300.763H605.525V276.585Z" fill="#F4B63A"/>
<path d="M779.969 276.585H605.525V300.763H779.969V276.585Z" fill="#0A0A0A"/>
<path fill-rule="evenodd" clip-rule="evenodd" d="M35.5958 223.384V300.766H0V69.0697H35.5958V95.5633C51.9566 79.1948 74.5582 69.0697 99.5023 69.0697C124.45 69.0697 147.048 79.1948 163.409 95.5633C179.773 111.932 189.899 134.522 189.899 159.474C189.899 184.415 179.773 207.016 163.409 223.384C147.048 239.742 124.45 249.867 99.5023 249.867C74.5582 249.867 51.9566 239.742 35.5958 223.384ZM58.3866 118.35C47.859 128.88 41.3408 143.422 41.3408 159.474C41.3408 175.525 47.859 190.057 58.3866 200.587C68.9143 211.116 83.4514 217.633 99.5023 217.633C115.553 217.633 130.094 211.116 140.621 200.587C151.149 190.057 157.664 175.525 157.664 159.474C157.664 143.422 151.149 128.88 140.621 118.35C130.094 107.832 115.553 101.315 99.5023 101.315C83.4514 101.315 68.9143 107.832 58.3866 118.35Z" fill="#0A0A0A"/>
<path d="M206.223 242.892V68.8419H242.866V242.892H206.223ZM206.223 40.2492V0H242.866V40.2492H206.223Z" fill="#0A0A0A"/>
<path d="M299.214 68.8376L340.575 128.246L343.347 134.074L346.403 128.246L387.764 68.8376H427.18L364.444 156.005L427.735 242.887H388.32L346.403 183.764L343.347 178.491L340.575 183.764L298.936 242.887H259.236L322.527 156.283L260.07 68.8376H299.214Z" fill="#0A0A0A"/>
<path d="M515.734 246.223C502.132 246.223 489.922 244.002 478.819 239.283C467.715 234.564 458.276 227.903 450.226 219.575C442.454 211.248 436.342 201.809 431.901 190.983C427.737 180.157 425.517 168.498 425.517 156.562C425.517 139.906 429.407 124.913 436.902 111.033C444.397 97.4313 454.943 86.6072 468.545 78.2795C482.147 69.9517 497.968 65.7892 516.011 65.7892C534.332 65.7892 549.883 69.9517 563.207 78.2795C576.532 86.6072 586.799 97.7089 594.016 111.033C601.233 124.635 604.846 139.35 604.846 154.895C604.846 157.393 604.845 159.892 604.568 162.112C604.568 164.611 604.29 166.553 604.012 167.941H464.383C465.216 178.211 467.994 187.094 472.99 194.866C477.987 202.639 484.092 208.75 491.865 212.913C499.637 217.355 507.962 219.298 516.845 219.298C526.838 219.298 535.999 216.799 544.882 212.08C553.487 207.083 559.598 200.694 562.651 192.921L594.016 201.528C590.13 210.133 584.304 217.908 576.809 224.57C569.036 231.51 560.147 236.786 549.877 240.673C539.328 244.559 527.948 246.223 515.734 246.223ZM463.272 143.794H568.758C567.925 133.801 565.147 124.912 560.151 117.139C555.432 109.644 549.049 103.54 541.276 99.0987C533.504 94.9349 525.172 92.7147 515.734 92.7147C506.573 92.7147 498.248 94.9349 490.475 99.0987C482.703 103.54 476.598 109.644 471.879 117.139C466.882 124.912 464.105 133.801 463.272 143.794Z" fill="#0A0A0A"/>
<path d="M613.724 192.094C613.724 180.991 617.057 171.274 623.442 162.946C629.827 154.618 638.43 147.957 649.534 143.516C660.915 138.797 673.682 136.576 688.394 136.576C695.889 136.576 703.942 137.126 711.992 138.514C720.042 139.625 727.26 141.573 733.367 143.794V132.686C733.367 120.472 729.761 111.033 722.544 104.093C715.049 97.1537 704.496 93.8261 690.895 93.8261C681.179 93.8261 672.019 95.4898 663.413 98.8209C654.53 102.43 645.37 107.149 635.654 113.534L623.442 88.8246C634.823 81.0521 646.482 75.5038 658.141 71.6176C669.8 67.7313 682.015 65.7892 694.785 65.7892C718.102 65.7892 736.7 71.8941 750.025 84.3856C763.349 96.5996 770.011 114.092 770.011 136.854V201.806C770.011 205.97 770.839 208.747 772.227 210.691C773.892 212.356 776.391 213.463 780 213.74V242.889C776.669 243.721 773.62 244 770.844 244.278C768.346 244.556 766.125 244.834 764.182 244.834C756.41 244.834 750.576 242.892 746.413 239.005C742.526 235.119 740.306 230.678 739.473 225.682L738.639 215.685C731.144 225.401 721.427 233.175 709.491 238.45C697.832 243.724 685.902 246.223 673.965 246.223C662.584 246.223 652.31 244.002 642.872 239.283C633.989 234.287 626.771 227.903 621.497 219.575C616.5 211.525 613.724 202.365 613.724 192.094ZM724.76 202.639C727.258 199.863 729.478 197.086 731.144 194.032C732.532 190.979 733.367 188.48 733.367 186.259V166.551C727.26 164.053 720.599 162.389 713.659 161.001C706.997 159.613 700.058 159.056 693.673 159.056C680.349 159.056 669.518 161.555 661.19 167.107C652.863 172.381 648.7 179.877 648.7 189.038C648.7 194.034 650.092 199.032 652.868 203.473C655.367 208.192 659.528 212.076 664.803 214.852C670.077 217.905 676.46 219.298 684.233 219.298C692.005 219.298 699.78 217.905 706.997 214.574C714.492 211.52 720.318 207.636 724.76 202.639Z" fill="#0A0A0A"/>
</svg>
