<?xml version="1.0" encoding="UTF-8" standalone="no"?>
<!DOCTYPE svg PUBLIC "-//W3C//DTD SVG 1.1//EN" "http://www.w3.org/Graphics/SVG/1.1/DTD/svg11.dtd">
<svg width="100%" height="100%" viewBox="0 0 1280 500" version="1.1" xmlns="http://www.w3.org/2000/svg" xmlns:xlink="http://www.w3.org/1999/xlink" xml:space="preserve" xmlns:serif="http://www.serif.com/" style="fill-rule:evenodd;clip-rule:evenodd;stroke-linejoin:round;stroke-miterlimit:2;">
    <g transform="matrix(1.5975,0,0,1.5975,-382.4,-369.83)">
        <path d="M240,540L240,308C240,305.791 241.791,304 244,304C250.148,304 261.852,304 268,304C270.209,304 272,305.791 272,308L272,328.47C288.989,313.256 311.422,304 336,304C388.984,304 432,347.016 432,400C432,452.984 388.984,496 336,496C311.422,496 288.989,486.744 272,471.53L272,540C272,542.209 270.209,544 268,544C261.852,544 250.148,544 244,544C241.791,544 240,542.209 240,540ZM336,336C371.323,336 400,364.677 400,400C400,435.323 371.323,464 336,464C300.677,464 272,435.323 272,400C272,364.677 300.677,336 336,336Z" style="fill:#0a0a0a;"/>
    </g>
    <g transform="matrix(1.5975,0,0,1.5975,-382.4,-369.83)">
        <path d="M480,308C480,305.791 478.209,304 476,304C469.852,304 458.148,304 452,304C449.791,304 448,305.791 448,308C448,332.957 448,467.043 448,492C448,494.209 449.791,496 452,496C458.148,496 469.852,496 476,496C478.209,496 480,494.209 480,492C480,467.043 480,332.957 480,308Z" style="fill:#0a0a0a;"/>
    </g>
    <g transform="matrix(3.34555,0,0,3.34555,-1179.35,-857.759)">
        <circle cx="459.772" cy="266.174" r="9.55" style="fill:#0a0a0a;"/>
    </g>
    <g transform="matrix(1.5975,0,0,1.5975,-382.4,-369.83)">
        <path d="M650.043,496C648.794,496 647.617,495.417 646.86,494.423C638.725,483.738 592,422.368 592,422.368C592,422.368 544.605,483.815 536.407,494.443C535.65,495.425 534.48,496 533.24,496C527.138,496 508.437,496 500.093,496C499.329,496 498.632,495.565 498.296,494.878C497.961,494.191 498.046,493.374 498.516,492.771C511.737,475.8 572.58,397.703 572.58,397.703C572.58,397.703 514.978,323.489 502.168,306.985C501.7,306.382 501.616,305.565 501.952,304.879C502.288,304.194 502.985,303.759 503.748,303.759C512.088,303.759 530.803,303.759 536.905,303.759C538.144,303.759 539.314,304.333 540.071,305.314C547.988,315.567 592.366,373.038 592.366,373.038C592.366,373.038 636.411,315.606 644.295,305.325C645.052,304.338 646.226,303.759 647.469,303.759C653.483,303.759 671.666,303.759 679.873,303.759C680.637,303.759 681.335,304.195 681.67,304.881C682.005,305.568 681.92,306.386 681.45,306.989C668.569,323.501 610.687,397.703 610.687,397.703C610.687,397.703 672.095,475.778 685.454,492.764C685.928,493.366 686.016,494.185 685.681,494.874C685.347,495.563 684.648,496 683.882,496L650.043,496Z" style="fill:#0a0a0a;"/>
    </g>
    <g transform="matrix(1.5975,0,0,1.5975,-382.4,-369.83)">
        <path d="M864,400.887C864,402.698 863.883,404.909 863.648,407.521C863.471,409.589 861.74,411.177 859.665,411.177C836.259,411.179 706.909,411.179 706.909,411.179C709.091,427.741 716.545,441.05 729.273,451.105C742,461.161 757.818,466.189 776.727,466.189C798.178,466.189 815.738,459.62 829.408,446.484C830.192,445.721 831.256,445.314 832.349,445.358C833.442,445.402 834.469,445.893 835.19,446.716C839.012,451.065 845.728,458.733 849.28,462.788C850.639,464.34 850.596,466.67 849.18,468.17C840.894,476.79 830.867,483.466 819.091,488.192C806.121,493.397 791.636,496 775.636,496C755.273,496 737.212,491.919 721.455,483.756C705.697,475.593 693.515,464.177 684.909,449.508C676.303,434.839 672,418.277 672,399.823C672,381.604 676.182,365.161 684.545,350.492C692.909,335.823 704.424,324.407 719.091,316.244C733.758,308.081 750.303,304 768.727,304C787.152,304 803.576,308.081 818,316.244C832.424,324.407 843.697,335.823 851.818,350.492C859.939,365.161 864,381.959 864,400.887ZM768.727,332.747C752,332.747 738,337.715 726.727,347.652C715.455,357.59 708.848,370.603 706.909,386.691L830.545,386.691C828.606,370.839 822,357.885 810.727,347.83C799.455,337.774 785.455,332.747 768.727,332.747Z" style="fill:#0a0a0a;"/>
    </g>
    <g transform="matrix(1.5975,0,0,1.5975,-382.4,-369.83)">
        <path d="M957.275,304C984,304 1004.47,310.388 1018.68,323.165C1032.89,335.941 1040,354.987 1040,380.303L1040,492C1040,494.209 1038.21,496 1036,496C1029.62,496 1017.22,496 1010.84,496C1008.63,496 1006.84,494.209 1006.84,492C1006.84,484.49 1006.84,469.028 1006.84,469.028C1001.01,477.782 992.685,484.466 981.874,489.079C971.063,493.693 958.247,496 943.427,496C921.805,496 904.495,490.913 891.497,480.739C878.499,470.566 872,457.198 872,440.636C872,424.074 878.195,410.765 890.586,400.71C902.976,390.654 922.655,385.627 949.623,385.627L1003.01,385.627C1004.12,385.627 1005.01,384.731 1005.01,383.627C1005.01,381.639 1005.01,378.884 1005.01,378.884C1005.01,364.214 1000.64,352.976 991.896,345.168C983.15,337.36 970.273,333.457 953.267,333.457C941.848,333.457 930.672,335.29 919.74,338.957C910.48,342.064 902.44,346.061 895.621,350.949C894.704,351.624 893.542,351.875 892.429,351.639C891.315,351.403 890.355,350.703 889.791,349.714C886.862,344.603 881.848,335.813 879.208,331.186C878.202,329.423 878.676,327.186 880.31,325.983C889.673,319.223 900.628,313.964 913.18,310.211C927.028,306.07 941.727,304 957.275,304ZM949.258,469.738C962.62,469.738 974.161,466.839 983.879,461.043C993.361,455.386 1000.3,447.421 1004.69,437.147C1004.9,436.653 1005.01,436.121 1005.01,435.583C1005.01,432.403 1005.01,420.45 1005.01,414.115C1005.01,411.905 1003.22,410.115 1001.01,410.115C988.525,410.115 951.08,410.115 951.08,410.115C921.44,410.115 906.62,419.815 906.62,439.216C906.62,448.68 910.386,456.133 917.918,461.575C925.449,467.017 935.896,469.738 949.258,469.738Z" style="fill:#0a0a0a;"/>
    </g>
    <g transform="matrix(1.5975,0,0,1.5975,-382.4,-369.83)">
        <path d="M491.5,544L327.998,544C323.581,544 320,540.419 320,536.002L320,535.998C320,531.581 323.581,528 327.998,528L491.5,528L491.5,544ZM508.5,528L671.5,528L671.5,544L508.5,544L508.5,528ZM688.5,528L851.5,528L851.5,544L688.5,544L688.5,528ZM868.5,528L1032,528C1036.42,528 1040,531.581 1040,535.998L1040,536.002C1040,540.419 1036.42,544 1032,544L868.5,544L868.5,528Z" style="fill:#0a0a0a;"/>
    </g>
</svg>
